<mxfile host="Electron" modified="2024-07-02T11:13:44.978Z" agent="Mozilla/5.0 (Windows NT 10.0; Win64; x64) AppleWebKit/537.36 (KHTML, like Gecko) draw.io/24.5.3 Chrome/124.0.6367.207 Electron/30.0.6 Safari/537.36" etag="l6UxWtd7vUOnQcskavEs" version="24.5.3" type="device">
  <diagram name="Page-1" id="yljmo2ODpmwC7XOK9mpB">
    <mxGraphModel dx="1036" dy="614" grid="1" gridSize="10" guides="1" tooltips="1" connect="1" arrows="1" fold="1" page="1" pageScale="1" pageWidth="850" pageHeight="1100" math="0" shadow="0">
      <root>
        <mxCell id="0" />
        <mxCell id="1" parent="0" />
        <mxCell id="vMQlbJKzdD5TBT5hC3Ut-5" value="VPC" style="points=[[0,0],[0.25,0],[0.5,0],[0.75,0],[1,0],[1,0.25],[1,0.5],[1,0.75],[1,1],[0.75,1],[0.5,1],[0.25,1],[0,1],[0,0.75],[0,0.5],[0,0.25]];outlineConnect=0;gradientColor=none;html=1;whiteSpace=wrap;fontSize=12;fontStyle=0;container=1;pointerEvents=0;collapsible=0;recursiveResize=0;shape=mxgraph.aws4.group;grIcon=mxgraph.aws4.group_vpc2;strokeColor=#8C4FFF;fillColor=none;verticalAlign=top;align=left;spacingLeft=30;fontColor=#AAB7B8;dashed=0;" parent="1" vertex="1">
          <mxGeometry x="330" y="210" width="510" height="270" as="geometry" />
        </mxCell>
        <mxCell id="vMQlbJKzdD5TBT5hC3Ut-3" value="" style="group" parent="1" vertex="1" connectable="0">
          <mxGeometry x="230" y="120" width="655" height="420" as="geometry" />
        </mxCell>
        <mxCell id="vMQlbJKzdD5TBT5hC3Ut-2" value="Region" style="points=[[0,0],[0.25,0],[0.5,0],[0.75,0],[1,0],[1,0.25],[1,0.5],[1,0.75],[1,1],[0.75,1],[0.5,1],[0.25,1],[0,1],[0,0.75],[0,0.5],[0,0.25]];outlineConnect=0;gradientColor=none;html=1;whiteSpace=wrap;fontSize=12;fontStyle=0;container=1;pointerEvents=0;collapsible=0;recursiveResize=0;shape=mxgraph.aws4.group;grIcon=mxgraph.aws4.group_region;strokeColor=#00A4A6;fillColor=none;verticalAlign=top;align=left;spacingLeft=30;fontColor=#147EBA;dashed=1;" parent="vMQlbJKzdD5TBT5hC3Ut-3" vertex="1">
          <mxGeometry x="41.25984251968504" y="48.78048780487805" width="577.6377952755905" height="321.9512195121951" as="geometry" />
        </mxCell>
        <mxCell id="vMQlbJKzdD5TBT5hC3Ut-1" value="AWS Cloud" style="sketch=0;outlineConnect=0;gradientColor=none;html=1;whiteSpace=wrap;fontSize=12;fontStyle=0;shape=mxgraph.aws4.group;grIcon=mxgraph.aws4.group_aws_cloud;strokeColor=#AAB7B8;fillColor=none;verticalAlign=top;align=left;spacingLeft=30;fontColor=#AAB7B8;dashed=0;" parent="vMQlbJKzdD5TBT5hC3Ut-3" vertex="1">
          <mxGeometry width="655" height="409.7560975609756" as="geometry" />
        </mxCell>
        <mxCell id="vMQlbJKzdD5TBT5hC3Ut-9" value="Public subnet" style="points=[[0,0],[0.25,0],[0.5,0],[0.75,0],[1,0],[1,0.25],[1,0.5],[1,0.75],[1,1],[0.75,1],[0.5,1],[0.25,1],[0,1],[0,0.75],[0,0.5],[0,0.25]];outlineConnect=0;gradientColor=none;html=1;whiteSpace=wrap;fontSize=12;fontStyle=0;container=1;pointerEvents=0;collapsible=0;recursiveResize=0;shape=mxgraph.aws4.group;grIcon=mxgraph.aws4.group_security_group;grStroke=0;strokeColor=#7AA116;fillColor=#F2F6E8;verticalAlign=top;align=left;spacingLeft=30;fontColor=#248814;dashed=0;" parent="vMQlbJKzdD5TBT5hC3Ut-3" vertex="1">
          <mxGeometry x="103.14960629921259" y="234.14634146341461" width="175.3543307086614" height="97.5609756097561" as="geometry" />
        </mxCell>
        <mxCell id="vMQlbJKzdD5TBT5hC3Ut-11" value="Private subnet" style="points=[[0,0],[0.25,0],[0.5,0],[0.75,0],[1,0],[1,0.25],[1,0.5],[1,0.75],[1,1],[0.75,1],[0.5,1],[0.25,1],[0,1],[0,0.75],[0,0.5],[0,0.25]];outlineConnect=0;gradientColor=none;html=1;whiteSpace=wrap;fontSize=12;fontStyle=0;container=1;pointerEvents=0;collapsible=0;recursiveResize=0;shape=mxgraph.aws4.group;grIcon=mxgraph.aws4.group_security_group;grStroke=0;strokeColor=#00A4A6;fillColor=#E6F6F7;verticalAlign=top;align=left;spacingLeft=30;fontColor=#147EBA;dashed=0;" parent="vMQlbJKzdD5TBT5hC3Ut-3" vertex="1">
          <mxGeometry x="402.2834645669291" y="117.07317073170731" width="165.03937007874015" height="97.5609756097561" as="geometry" />
        </mxCell>
        <mxCell id="vMQlbJKzdD5TBT5hC3Ut-12" value="Private subnet" style="points=[[0,0],[0.25,0],[0.5,0],[0.75,0],[1,0],[1,0.25],[1,0.5],[1,0.75],[1,1],[0.75,1],[0.5,1],[0.25,1],[0,1],[0,0.75],[0,0.5],[0,0.25]];outlineConnect=0;gradientColor=none;html=1;whiteSpace=wrap;fontSize=12;fontStyle=0;container=1;pointerEvents=0;collapsible=0;recursiveResize=0;shape=mxgraph.aws4.group;grIcon=mxgraph.aws4.group_security_group;grStroke=0;strokeColor=#00A4A6;fillColor=#E6F6F7;verticalAlign=top;align=left;spacingLeft=30;fontColor=#147EBA;dashed=0;" parent="vMQlbJKzdD5TBT5hC3Ut-3" vertex="1">
          <mxGeometry x="402.2834645669291" y="234.14634146341461" width="165.03937007874015" height="97.5609756097561" as="geometry" />
        </mxCell>
        <mxCell id="vMQlbJKzdD5TBT5hC3Ut-7" value="Public subnet" style="points=[[0,0],[0.25,0],[0.5,0],[0.75,0],[1,0],[1,0.25],[1,0.5],[1,0.75],[1,1],[0.75,1],[0.5,1],[0.25,1],[0,1],[0,0.75],[0,0.5],[0,0.25]];outlineConnect=0;gradientColor=none;html=1;whiteSpace=wrap;fontSize=12;fontStyle=0;container=1;pointerEvents=0;collapsible=0;recursiveResize=0;shape=mxgraph.aws4.group;grIcon=mxgraph.aws4.group_security_group;grStroke=0;strokeColor=#7AA116;fillColor=#F2F6E8;verticalAlign=top;align=left;spacingLeft=30;fontColor=#248814;dashed=0;" parent="vMQlbJKzdD5TBT5hC3Ut-3" vertex="1">
          <mxGeometry x="103.14960629921259" y="121.95121951219512" width="175.3543307086614" height="82.92682926829268" as="geometry" />
        </mxCell>
        <mxCell id="vMQlbJKzdD5TBT5hC3Ut-13" value="" style="sketch=0;points=[[0,0,0],[0.25,0,0],[0.5,0,0],[0.75,0,0],[1,0,0],[0,1,0],[0.25,1,0],[0.5,1,0],[0.75,1,0],[1,1,0],[0,0.25,0],[0,0.5,0],[0,0.75,0],[1,0.25,0],[1,0.5,0],[1,0.75,0]];outlineConnect=0;fontColor=#232F3E;fillColor=#ED7100;strokeColor=#ffffff;dashed=0;verticalLabelPosition=bottom;verticalAlign=top;align=center;html=1;fontSize=12;fontStyle=0;aspect=fixed;shape=mxgraph.aws4.resourceIcon;resIcon=mxgraph.aws4.eks;" parent="vMQlbJKzdD5TBT5hC3Ut-3" vertex="1">
          <mxGeometry x="433.22834645669286" y="151.21951219512195" width="29.268292682926827" height="29.268292682926827" as="geometry" />
        </mxCell>
        <mxCell id="vMQlbJKzdD5TBT5hC3Ut-14" value="" style="sketch=0;points=[[0,0,0],[0.25,0,0],[0.5,0,0],[0.75,0,0],[1,0,0],[0,1,0],[0.25,1,0],[0.5,1,0],[0.75,1,0],[1,1,0],[0,0.25,0],[0,0.5,0],[0,0.75,0],[1,0.25,0],[1,0.5,0],[1,0.75,0]];outlineConnect=0;fontColor=#232F3E;fillColor=#ED7100;strokeColor=#ffffff;dashed=0;verticalLabelPosition=bottom;verticalAlign=top;align=center;html=1;fontSize=12;fontStyle=0;aspect=fixed;shape=mxgraph.aws4.resourceIcon;resIcon=mxgraph.aws4.eks;" parent="vMQlbJKzdD5TBT5hC3Ut-3" vertex="1">
          <mxGeometry x="412.59842519685037" y="273.1707317073171" width="29.268292682926827" height="29.268292682926827" as="geometry" />
        </mxCell>
        <mxCell id="vMQlbJKzdD5TBT5hC3Ut-26" value="" style="outlineConnect=0;dashed=0;verticalLabelPosition=bottom;verticalAlign=top;align=center;html=1;shape=mxgraph.aws3.instances;fillColor=#F58534;gradientColor=none;" parent="vMQlbJKzdD5TBT5hC3Ut-3" vertex="1">
          <mxGeometry x="474.49" y="151.21951219512195" width="25.51" height="24.390243902439025" as="geometry" />
        </mxCell>
        <mxCell id="vMQlbJKzdD5TBT5hC3Ut-27" value="" style="outlineConnect=0;dashed=0;verticalLabelPosition=bottom;verticalAlign=top;align=center;html=1;shape=mxgraph.aws3.instances;fillColor=#F58534;gradientColor=none;" parent="vMQlbJKzdD5TBT5hC3Ut-3" vertex="1">
          <mxGeometry x="450" y="273.9024390243902" width="30.94" height="29.268292682926827" as="geometry" />
        </mxCell>
        <mxCell id="vMQlbJKzdD5TBT5hC3Ut-29" value="" style="outlineConnect=0;dashed=0;verticalLabelPosition=bottom;verticalAlign=top;align=center;html=1;shape=mxgraph.aws3.vpc_nat_gateway;fillColor=#F58534;gradientColor=none;" parent="vMQlbJKzdD5TBT5hC3Ut-3" vertex="1">
          <mxGeometry x="134.09448818897636" y="156.09756097560975" width="30.944881889763778" height="31.21951219512195" as="geometry" />
        </mxCell>
        <mxCell id="vMQlbJKzdD5TBT5hC3Ut-30" value="" style="outlineConnect=0;dashed=0;verticalLabelPosition=bottom;verticalAlign=top;align=center;html=1;shape=mxgraph.aws3.db_on_instance;fillColor=#F58534;gradientColor=none;" parent="vMQlbJKzdD5TBT5hC3Ut-3" vertex="1">
          <mxGeometry x="505.4330708661417" y="273.1707317073171" width="41.25984251968504" height="30.73170731707317" as="geometry" />
        </mxCell>
        <mxCell id="vMQlbJKzdD5TBT5hC3Ut-31" value="" style="outlineConnect=0;dashed=0;verticalLabelPosition=bottom;verticalAlign=top;align=center;html=1;shape=mxgraph.aws3.instance;fillColor=#F58534;gradientColor=none;" parent="vMQlbJKzdD5TBT5hC3Ut-3" vertex="1">
          <mxGeometry x="154" y="268.2926829268293" width="41.26" height="40.48780487804878" as="geometry" />
        </mxCell>
        <mxCell id="vMQlbJKzdD5TBT5hC3Ut-35" value="" style="outlineConnect=0;dashed=0;verticalLabelPosition=bottom;verticalAlign=top;align=center;html=1;shape=mxgraph.aws3.internet_gateway;fillColor=#F58534;gradientColor=none;" parent="vMQlbJKzdD5TBT5hC3Ut-3" vertex="1">
          <mxGeometry x="301.71" y="341.4673170731707" width="51.57" height="29.268292682926827" as="geometry" />
        </mxCell>
        <mxCell id="vMQlbJKzdD5TBT5hC3Ut-36" value="" style="outlineConnect=0;dashed=0;verticalLabelPosition=bottom;verticalAlign=top;align=center;html=1;shape=mxgraph.aws3.application_load_balancer;fillColor=#F58534;gradientColor=none;" parent="vMQlbJKzdD5TBT5hC3Ut-3" vertex="1">
          <mxGeometry x="165.03937007874015" y="195.1219512195122" width="41.25984251968504" height="39.02439024390244" as="geometry" />
        </mxCell>
        <mxCell id="vMQlbJKzdD5TBT5hC3Ut-34" value="" style="outlineConnect=0;dashed=0;verticalLabelPosition=bottom;verticalAlign=top;align=center;html=1;shape=mxgraph.aws3.route_53;fillColor=#F58536;gradientColor=none;" parent="vMQlbJKzdD5TBT5hC3Ut-3" vertex="1">
          <mxGeometry x="11.26" y="183.41463414634146" width="30" height="58.536585365853654" as="geometry" />
        </mxCell>
        <mxCell id="vMQlbJKzdD5TBT5hC3Ut-46" value="" style="edgeStyle=orthogonalEdgeStyle;html=1;endArrow=block;elbow=vertical;startArrow=block;startFill=1;endFill=1;strokeColor=#545B64;rounded=0;entryX=0;entryY=0.5;entryDx=0;entryDy=0;entryPerimeter=0;" parent="vMQlbJKzdD5TBT5hC3Ut-3" target="vMQlbJKzdD5TBT5hC3Ut-36" edge="1">
          <mxGeometry width="100" relative="1" as="geometry">
            <mxPoint x="49.56999999999999" y="214.6341463414634" as="sourcePoint" />
            <mxPoint x="149.57" y="214.6341463414634" as="targetPoint" />
          </mxGeometry>
        </mxCell>
        <mxCell id="vMQlbJKzdD5TBT5hC3Ut-53" style="edgeStyle=orthogonalEdgeStyle;rounded=0;orthogonalLoop=1;jettySize=auto;html=1;entryX=0;entryY=0.5;entryDx=0;entryDy=0;entryPerimeter=0;" parent="vMQlbJKzdD5TBT5hC3Ut-3" source="vMQlbJKzdD5TBT5hC3Ut-31" target="vMQlbJKzdD5TBT5hC3Ut-14" edge="1">
          <mxGeometry relative="1" as="geometry" />
        </mxCell>
        <mxCell id="vMQlbJKzdD5TBT5hC3Ut-56" style="edgeStyle=orthogonalEdgeStyle;rounded=0;orthogonalLoop=1;jettySize=auto;html=1;entryX=0.809;entryY=0.667;entryDx=0;entryDy=0;entryPerimeter=0;" parent="vMQlbJKzdD5TBT5hC3Ut-3" source="vMQlbJKzdD5TBT5hC3Ut-26" target="vMQlbJKzdD5TBT5hC3Ut-1" edge="1">
          <mxGeometry relative="1" as="geometry" />
        </mxCell>
        <mxCell id="vMQlbJKzdD5TBT5hC3Ut-57" style="edgeStyle=orthogonalEdgeStyle;rounded=0;orthogonalLoop=1;jettySize=auto;html=1;entryX=0;entryY=0.5;entryDx=0;entryDy=0;entryPerimeter=0;" parent="vMQlbJKzdD5TBT5hC3Ut-3" source="vMQlbJKzdD5TBT5hC3Ut-27" target="vMQlbJKzdD5TBT5hC3Ut-30" edge="1">
          <mxGeometry relative="1" as="geometry" />
        </mxCell>
        <mxCell id="vMQlbJKzdD5TBT5hC3Ut-66" value="" style="edgeStyle=orthogonalEdgeStyle;html=1;endArrow=none;elbow=vertical;startArrow=open;startFill=0;strokeColor=#545B64;rounded=0;" parent="vMQlbJKzdD5TBT5hC3Ut-3" edge="1">
          <mxGeometry width="100" relative="1" as="geometry">
            <mxPoint x="206.3" y="214.6341463414634" as="sourcePoint" />
            <mxPoint x="320" y="214.6341463414634" as="targetPoint" />
          </mxGeometry>
        </mxCell>
        <mxCell id="vMQlbJKzdD5TBT5hC3Ut-69" value="" style="edgeStyle=orthogonalEdgeStyle;html=1;endArrow=open;elbow=vertical;startArrow=none;endFill=0;strokeColor=#545B64;rounded=0;" parent="vMQlbJKzdD5TBT5hC3Ut-3" edge="1">
          <mxGeometry width="100" relative="1" as="geometry">
            <mxPoint x="320" y="165.85365853658536" as="sourcePoint" />
            <mxPoint x="433.23" y="165.3658536585366" as="targetPoint" />
            <Array as="points">
              <mxPoint x="382" y="165.85365853658536" />
            </Array>
          </mxGeometry>
        </mxCell>
        <mxCell id="vMQlbJKzdD5TBT5hC3Ut-71" value="" style="edgeStyle=orthogonalEdgeStyle;html=1;endArrow=open;elbow=vertical;startArrow=none;endFill=0;strokeColor=#545B64;rounded=0;" parent="vMQlbJKzdD5TBT5hC3Ut-3" edge="1">
          <mxGeometry width="100" relative="1" as="geometry">
            <mxPoint x="320" y="282.9268292682927" as="sourcePoint" />
            <mxPoint x="412.6" y="282.4390243902439" as="targetPoint" />
            <Array as="points">
              <mxPoint x="356.37" y="282.9268292682927" />
            </Array>
          </mxGeometry>
        </mxCell>
        <mxCell id="vMQlbJKzdD5TBT5hC3Ut-72" value="" style="endArrow=none;html=1;rounded=0;" parent="vMQlbJKzdD5TBT5hC3Ut-3" edge="1">
          <mxGeometry width="50" height="50" relative="1" as="geometry">
            <mxPoint x="320" y="282.9268292682927" as="sourcePoint" />
            <mxPoint x="320" y="165.85365853658536" as="targetPoint" />
          </mxGeometry>
        </mxCell>
        <mxCell id="vMQlbJKzdD5TBT5hC3Ut-73" value="" style="rounded=1;arcSize=10;dashed=1;strokeColor=#F59D56;fillColor=none;gradientColor=none;dashPattern=8 4;strokeWidth=2;" parent="vMQlbJKzdD5TBT5hC3Ut-3" vertex="1">
          <mxGeometry x="100" y="107.3170731707317" width="490" height="97.5609756097561" as="geometry" />
        </mxCell>
        <mxCell id="vMQlbJKzdD5TBT5hC3Ut-76" value="" style="rounded=1;arcSize=10;dashed=1;strokeColor=#F59D56;fillColor=none;gradientColor=none;dashPattern=8 4;strokeWidth=2;" parent="vMQlbJKzdD5TBT5hC3Ut-3" vertex="1">
          <mxGeometry x="103.15" y="225.3658536585366" width="486.85" height="106.34146341463415" as="geometry" />
        </mxCell>
        <mxCell id="vMQlbJKzdD5TBT5hC3Ut-77" value="" style="outlineConnect=0;dashed=0;verticalLabelPosition=bottom;verticalAlign=top;align=center;html=1;shape=mxgraph.aws3.s3;fillColor=#E05243;gradientColor=none;" parent="vMQlbJKzdD5TBT5hC3Ut-3" vertex="1">
          <mxGeometry x="50" y="97.5609756097561" width="40" height="39.02439024390244" as="geometry" />
        </mxCell>
        <mxCell id="vMQlbJKzdD5TBT5hC3Ut-78" value="" style="outlineConnect=0;dashed=0;verticalLabelPosition=bottom;verticalAlign=top;align=center;html=1;shape=mxgraph.aws3.cloudwatch;fillColor=#759C3E;gradientColor=none;" parent="vMQlbJKzdD5TBT5hC3Ut-3" vertex="1">
          <mxGeometry x="50" y="274.6341463414634" width="40" height="29.268292682926827" as="geometry" />
        </mxCell>
        <mxCell id="vMQlbJKzdD5TBT5hC3Ut-37" style="edgeStyle=orthogonalEdgeStyle;rounded=0;orthogonalLoop=1;jettySize=auto;html=1;" parent="1" source="vMQlbJKzdD5TBT5hC3Ut-33" target="vMQlbJKzdD5TBT5hC3Ut-34" edge="1">
          <mxGeometry relative="1" as="geometry" />
        </mxCell>
        <mxCell id="vMQlbJKzdD5TBT5hC3Ut-33" value="Mobile client" style="sketch=0;outlineConnect=0;fontColor=#232F3E;gradientColor=none;strokeColor=#232F3E;fillColor=#ffffff;dashed=0;verticalLabelPosition=bottom;verticalAlign=top;align=center;html=1;fontSize=12;fontStyle=0;aspect=fixed;shape=mxgraph.aws4.resourceIcon;resIcon=mxgraph.aws4.mobile_client;" parent="1" vertex="1">
          <mxGeometry x="20" y="308" width="60" height="60" as="geometry" />
        </mxCell>
      </root>
    </mxGraphModel>
  </diagram>
</mxfile>
